<svg width="25" height="25" viewBox="0 0 25 25" fill="none" xmlns="http://www.w3.org/2000/svg">
<g clip-path="url(#clip0_1148_1455)">
<path d="M24.1231 5.4863C23.6613 3.3175 22.429 1.73551 20.4488 0.789904C19.5876 0.379129 18.6711 0.218589 17.7247 0.219197H13.1098C11.5963 0.219197 10.083 0.206731 8.56982 0.225886C8.02643 0.232575 7.4759 0.270278 6.94233 0.370615C5.10474 0.717539 3.53825 1.59747 2.27143 3.00189C0.787074 4.64712 0.0237685 6.60157 0.00978199 8.8397C-0.00837072 11.5649 0.00680612 14.2902 0.00442544 17.0151C0.00442544 17.6062 0.0514439 18.1924 0.190119 18.7655C0.741544 21.0432 2.04467 22.7182 4.0992 23.7626C5.56064 24.5048 7.11195 24.6511 8.7085 24.3656C10.491 24.0469 12.0334 23.2406 13.2913 21.9122C14.0787 21.0809 14.8146 20.1982 15.5696 19.3347C17.8948 16.6744 20.2193 14.0136 22.5432 11.3521C24.0196 9.66338 24.5966 7.70619 24.1231 5.4863ZM8.37818 20.0842C7.95471 20.1341 7.52113 20.093 7.09172 20.093C6.6623 20.093 6.22872 20.1322 5.80555 20.0845C4.96934 19.9905 4.32804 19.1209 4.37863 18.2684C4.40914 17.8105 4.61113 17.3822 4.94263 17.0725C5.27414 16.7627 5.70968 16.5954 6.15879 16.6052C6.79086 16.6119 7.42293 16.6052 8.055 16.6052C8.9793 16.6052 9.71999 17.2963 9.8051 18.2355C9.88485 19.1054 9.22778 19.9842 8.37818 20.0842ZM18.5961 7.49153C17.7673 7.52194 16.937 7.50856 16.1074 7.51099C15.2319 7.51342 14.3567 7.51099 13.4812 7.51099C11.887 7.51099 10.2928 7.52224 8.69897 7.50613C7.92138 7.49822 7.25122 8.05099 7.15659 8.81751C7.07178 9.50619 7.14737 10.1553 7.75712 10.6087C8.01591 10.8019 8.32938 10.9036 8.64987 10.8981C10.4465 10.8951 12.2429 10.8951 14.0391 10.8981C14.8551 10.8981 15.5527 11.388 15.7967 12.1253C16.1606 13.2257 15.3354 14.4115 14.1981 14.4136C12.2637 14.4172 10.3315 14.4397 8.39901 14.4078C7.32216 14.388 6.28363 13.9961 5.4527 13.296C4.62177 12.5958 4.04745 11.6288 3.82334 10.5524C3.57962 9.37848 3.5936 8.19207 4.06408 7.06738C4.76133 5.40087 5.99839 4.39415 7.74849 4.0682C8.00238 4.02406 8.25962 4.0031 8.51715 4.00557C11.8067 4.00172 15.096 4.0009 18.3851 4.00313C18.7852 4.0006 19.1744 4.13657 19.4893 4.38888C19.8042 4.64119 20.0262 4.99499 20.1191 5.39266C20.3542 6.37718 19.5849 7.45687 18.5961 7.49153Z" fill="#4D4D4D"/>
</g>
<defs>
<clipPath id="clip0_1148_1455">
<rect width="24.2847" height="24.2847" fill="white" transform="translate(0 0.216064)"/>
</clipPath>
</defs>
</svg>
